<svg width="152" height="150" viewBox="0 0 152 150" fill="none" xmlns="http://www.w3.org/2000/svg">
<rect x="2" width="150" height="150" fill="white"/>
<mask id="mask0_222_168" style="mask-type:alpha" maskUnits="userSpaceOnUse" x="53" y="21" width="48" height="48">
<rect x="53" y="21" width="48" height="48" fill="#D9D9D9"/>
</mask>
<g mask="url(#mask0_222_168)">
<path d="M66.4 57L55.1 45.7L57.95 42.9L69.25 54.2L66.4 57ZM77.7 57L66.4 45.7L69.2 42.85L77.7 51.35L96.1 32.95L98.9 35.8L77.7 57ZM77.7 45.7L74.85 42.9L84.75 33L87.6 35.8L77.7 45.7Z" fill="#1C9AD6"/>
</g>
<path d="M31.0875 85.116C32.9955 88.644 34.9395 89.328 36.4515 89.328C39.7275 89.328 40.9875 87.888 40.9875 85.908C40.9875 81.156 27.8835 83.28 27.8835 73.74C27.8835 69.024 31.5915 66.072 37.0275 66.072C40.0875 66.072 44.1555 67.944 45.9915 72.732L41.2035 74.496C39.9435 71.328 38.2155 70.716 37.0275 70.716C34.5435 70.716 33.3195 72.084 33.3195 73.74C33.3195 78.456 46.4235 77.052 46.4235 85.908C46.4235 90.66 42.6795 93.972 36.4515 93.972C32.3835 93.972 28.9995 91.524 26.6595 87.636L31.0875 85.116ZM62.9013 93.936C54.9813 93.936 49.4373 88.176 49.4373 80.004C49.4373 71.796 54.9813 66.036 62.9013 66.072C66.6453 66.072 69.9933 67.656 72.4053 70.14L68.9133 73.992C67.6533 72.12 65.3133 70.824 62.8653 70.824C57.9693 70.788 54.9093 74.316 54.9093 80.004C54.9093 85.656 57.9693 89.184 62.8653 89.184C65.7453 89.184 67.6173 87.672 68.6613 86.232L72.4053 89.868C69.9933 92.352 67.0773 94.008 62.9013 93.936ZM98.3355 66.36V93.648H92.8635V81.984H81.8475V93.648H76.3755V66.36H81.8475V77.304H92.8635V66.36H98.3355ZM114.319 93.9C107.479 93.9 103.411 89.256 103.411 82.632V66.36H108.883V82.56C108.883 86.376 110.539 88.788 114.319 88.788C118.099 88.788 119.755 86.376 119.755 82.56V66.36H125.227V82.632C125.227 89.256 121.159 93.9 114.319 93.9ZM48.3084 119.808C48.9564 121.2 50.3724 121.8 51.2844 121.8C52.7724 121.8 53.8284 121.032 53.8284 119.976C53.8284 118.848 52.4364 118.44 51.1164 117.984C49.6044 117.456 47.5404 116.832 47.5404 114.816C47.5404 113.04 49.2204 111.864 51.3084 111.864C52.5564 111.864 54.5964 112.584 55.0764 114.384L53.7564 114.816C53.3964 113.52 52.0764 113.16 51.3084 113.16C50.0124 113.16 48.9804 113.832 48.9804 114.816C48.9804 115.92 50.3004 116.304 51.6924 116.784C53.2764 117.336 55.2684 117.936 55.2684 119.976C55.2684 121.8 53.5884 123.096 51.2604 123.096C49.7244 123.096 47.9724 122.232 47.1084 120.528L48.3084 119.808ZM64.473 116.712C64.473 114.696 63.321 113.28 61.689 113.28C59.913 113.28 58.425 115.008 58.425 117.216V123H56.985V106.152H58.425V113.904C59.025 112.872 60.177 111.96 61.689 111.96C64.161 111.96 65.913 113.952 65.913 116.688V123H64.473V116.712ZM73.0727 123.192C70.0247 123.192 67.8647 120.888 67.8647 117.624C67.8647 114.36 70.0247 112.032 73.0727 112.032C76.4567 112.032 77.4407 114.816 77.5367 115.056C78.1367 116.616 77.9687 118.176 77.9687 118.248H69.3527C69.5447 120.384 71.0807 121.896 73.0727 121.896C75.6167 121.896 76.3367 120.24 76.4567 120.048L77.6087 120.672C77.0567 121.896 75.6167 123.192 73.0727 123.192ZM76.5527 116.952C76.4087 115.032 75.3767 113.304 73.0727 113.328C71.0567 113.328 69.5447 114.792 69.3527 116.952H76.5527ZM84.2945 123.192C81.2465 123.192 79.0865 120.888 79.0865 117.624C79.0865 114.36 81.2465 112.032 84.2945 112.032C87.6785 112.032 88.6625 114.816 88.7585 115.056C89.3585 116.616 89.1905 118.176 89.1905 118.248H80.5745C80.7665 120.384 82.3025 121.896 84.2945 121.896C86.8385 121.896 87.5585 120.24 87.6785 120.048L88.8305 120.672C88.2785 121.896 86.8385 123.192 84.2945 123.192ZM87.7745 116.952C87.6305 115.032 86.5985 113.304 84.2945 113.328C82.2785 113.328 80.7665 114.792 80.5745 116.952H87.7745ZM91.6385 123V113.208H89.5985V111.936H91.6385V108.192H93.0785V111.936H95.7665V113.208H93.0785V123H91.6385ZM101.465 105.525V109.283H105.224V110.09H101.465V113.819H100.673V110.09H96.9292V109.283H100.673V105.525H101.465Z" fill="#26539C"/>
</svg>
